# xmcd
#
# Track frame offsets: 
#        150
#        18058
#        26814
#        47852
#        60589
#        74852
#        89015
#        110190
#        110503
#        124845
#        138331
#        138645
#
# Disc length: 2043 seconds
#
# Revision: 0
# Processed by: cddbd v1.5.1PL0 Copyright (c) Steve Scherf et al.
# Submitted via: ExactAudioCopy v0.95b3
#
DISCID=bb07f90c
DTITLE=The Wingnut Adams Blues Band - The Blues Ain't Always Pretty
DYEAR=2003
DGENRE=Blues
TTITLE0=Things Will Be Alright
TTITLE1=Baby Dew
TTITLE2=Hard Times
TTITLE3=She Took Me Down
TTITLE4=You're Responsible
TTITLE5=Take Me
TTITLE6=Stormy Monday
TTITLE7=empty
TTITLE8=Please Tell Me
TTITLE9=Foggy
TTITLE10=empty
TTITLE11=A Man
EXTD=
EXTT0=
EXTT1=
EXTT2=
EXTT3=
EXTT4=
EXTT5=
EXTT6=
EXTT7=
EXTT8=
EXTT9=
EXTT10=
EXTT11=
PLAYORDER=
